<svg xmlns="http://www.w3.org/2000/svg" xmlns:xlink="http://www.w3.org/1999/xlink" width="108.161" height="42.414" viewBox="0 0 108.161 42.414">
  <defs>
    <clipPath id="clip-path">
      <rect width="108.161" height="42.414" fill="none"/>
    </clipPath>
  </defs>
  <g id="Repetir_cuadrícula_1" data-name="Repetir cuadrícula 1" clip-path="url(#clip-path)">
    <g id="Grupo_13282" data-name="Grupo 13282" transform="translate(-94.064 -226.493)">
      <path id="Path_2" data-name="Path 2" d="M63.11,73.865a12.706,12.706,0,0,0-2.121-4.627,10.623,10.623,0,0,0-3.855-3.277,12.316,12.316,0,0,0-5.4-1.164,13.653,13.653,0,0,0-5.013.97,11.485,11.485,0,0,0-4.049,2.7,11.009,11.009,0,0,0-2.5,4.049,14.482,14.482,0,0,0-.97,5.013,14.775,14.775,0,0,0,.776,5.2,11.008,11.008,0,0,0,2.505,4.049,9.985,9.985,0,0,0,4.049,2.7,14.72,14.72,0,0,0,5.2.97,12.364,12.364,0,0,0,7.132-1.927,7.782,7.782,0,0,0,2.505-2.505,10.747,10.747,0,0,0,1.736-3.663l.194-.582a.194.194,0,0,0-.194-.194H56.747c-.388,0-.388.194-.388.194v.194a1.462,1.462,0,0,1-.388.776c-.194.388-.582.582-.97.97a4.891,4.891,0,0,1-3.085.776A6.932,6.932,0,0,1,49.8,84.1a4.045,4.045,0,0,1-2.505-2.505,5.7,5.7,0,0,1-.388-1.928h16.58c.194,0,.194-.388.194-.388V77.922a14.675,14.675,0,0,0-.582-4.049m-15.23-1.551a8.387,8.387,0,0,1,1.357-1.164,4.175,4.175,0,0,1,2.313-.388,5.945,5.945,0,0,1,1.928.194,1.771,1.771,0,0,1,1.164.776,7.043,7.043,0,0,1,1.357,2.7H46.916c0-.194.194-.582.194-.776a4.833,4.833,0,0,1,.776-1.357" transform="translate(54.868 168.438)" fill="#262324"/>
      <path id="Path_3" data-name="Path 3" d="M76.743,89.392,67.875,76.667l8.1-11.373s.194-.194-.194-.194h-8.1a.673.673,0,0,0-.388.194l-3.661,5.4-3.663-5.4a.673.673,0,0,0-.388-.194H51.3a.194.194,0,0,0-.194.194l.582.776,7.518,10.8L50.523,89.584s-.194.194.194.194h8.1c.388,0,.388-.194.388-.194l4.435-6.554,4.435,6.554a.673.673,0,0,0,.388.194h8.1c.388-.194.194-.388.194-.388" transform="translate(65.333 168.719)" fill="#262324"/>
      <path id="Path_4" data-name="Path 4" d="M74.063,65.1H64.617c-.388,0-.194.194-.194.194l1.357,24.1s0,.388.194.388h6.554c.194,0,.194-.388.194-.388l1.357-24.1c.194,0,.194-.194,0-.194" transform="translate(78.23 168.719)" fill="#262324"/>
      <path id="Path_5" data-name="Path 5" d="M86.3,73.931s.194,0,.194-.388V68.532a.194.194,0,0,0-.194-.194H81.867V61.594a.194.194,0,0,0-.194-.194H74.541a.194.194,0,0,0-.194.194v6.748H70.688c-.388,0-.388.194-.388.194v5.013a.194.194,0,0,0,.194.194h3.663V86.852a7.341,7.341,0,0,0,.582,3.085,4.654,4.654,0,0,0,1.928,1.928,9.684,9.684,0,0,0,2.505.97,14.59,14.59,0,0,0,2.891.194h1.928a5.943,5.943,0,0,0,1.928-.194h.194s.194,0,.194-.388v-5.79c0-.388-.194-.194-.194-.194H85.53a8.347,8.347,0,0,1-.97.194h-.97c-.582,0-.97,0-1.164-.194-.194,0-.388-.194-.582-.194a.844.844,0,0,1-.194-.582c0-.388-.194-.776-.194-1.163V73.545h4.819Z" transform="translate(83.729 165.287)" fill="#262324"/>
      <path id="Path_6" data-name="Path 6" d="M103.484,72.411a14.331,14.331,0,0,0-2.505-4.049,13.846,13.846,0,0,0-14.46-2.694,11.482,11.482,0,0,0-4.049,2.7,11.009,11.009,0,0,0-2.5,4.043,15.829,15.829,0,0,0-.97,5.4,14.719,14.719,0,0,0,.97,5.2,14.331,14.331,0,0,0,2.505,4.049,13.846,13.846,0,0,0,14.459,2.7,11.482,11.482,0,0,0,4.049-2.7,11.007,11.007,0,0,0,2.505-4.049,14.719,14.719,0,0,0,.97-5.2,15.828,15.828,0,0,0-.97-5.4M94.042,83.976a4.375,4.375,0,0,1-2.505.582,4.111,4.111,0,0,1-2.313-.582,3.947,3.947,0,0,1-1.551-1.551A6.907,6.907,0,0,1,86.9,80.3,11,11,0,0,1,86.7,77.8a12.733,12.733,0,0,1,.194-2.7,6.906,6.906,0,0,1,.776-2.121,5.867,5.867,0,0,1,1.551-1.551,4.111,4.111,0,0,1,2.313-.582,5.336,5.336,0,0,1,2.505.582,5.868,5.868,0,0,1,1.551,1.551,4.042,4.042,0,0,1,.776,2.121,11.854,11.854,0,0,1,.194,2.7,12.724,12.724,0,0,1-.194,2.7,6.905,6.905,0,0,1-.776,2.121,3.572,3.572,0,0,1-1.551,1.357" transform="translate(91.801 168.349)" fill="#262324"/>
      <path id="Path_7" data-name="Path 7" d="M73.754,83.127a4.627,4.627,0,1,0-4.627,4.627,4.691,4.691,0,0,0,4.627-4.627" transform="translate(78.347 181.153)" fill="#c22821"/>
      <path id="Path_8" data-name="Path 8" d="M48,61.688l-3.663,4.431s-.194.194,0,.194h4.241a.846.846,0,0,0,.582-.194l5.973-4.625s.194-.194,0-.194H48.389L48,61.688" transform="translate(59.561 165.193)" fill="#262324"/>
      <path id="Path_9" data-name="Path 9" d="M98.286,67.794a4.539,4.539,0,0,1-.388,1.551,3.274,3.274,0,0,1-1.164,1.163,3.632,3.632,0,0,1-1.551.388,4.537,4.537,0,0,1-1.551-.388,3.274,3.274,0,0,1-1.163-1.164,3.631,3.631,0,0,1-.388-1.551,4.537,4.537,0,0,1,.388-1.551,3.275,3.275,0,0,1,1.163-1.163,3.633,3.633,0,0,1,1.551-.388,4.54,4.54,0,0,1,1.551.388A3.273,3.273,0,0,1,97.9,66.242a4.54,4.54,0,0,1,.388,1.551m-.582,0a2.354,2.354,0,0,0-.776-1.736,2.443,2.443,0,0,0-1.736-.776,2.354,2.354,0,0,0-1.736.776,2.443,2.443,0,0,0-.776,1.736,2.354,2.354,0,0,0,.776,1.736,2.443,2.443,0,0,0,1.736.776,2.356,2.356,0,0,0,1.736-.776,1.879,1.879,0,0,0,.776-1.736M93.85,66.242h1.357a1.445,1.445,0,0,1,.97.194.97.97,0,0,1,0,1.163c-.194.194-.388.194-.582.388.194,0,.194,0,.194.194a.673.673,0,0,1,.194.388,10.013,10.013,0,0,0,.582.97h-.776a2.98,2.98,0,0,1-.582-1.163c-.194-.194-.194-.194-.388-.194h0v1.357h-.97Zm.776,1.357h.388a.708.708,0,0,0,.582-.194.673.673,0,0,0,.194-.388c0-.194,0-.194-.194-.194a.673.673,0,0,0-.388-.194h-.388v.97Z" transform="translate(103.939 168.339)" fill="#262324"/>
    </g>
  </g>
</svg>
